<?xml version="1.0" encoding="UTF-8" standalone="no"?>
<!DOCTYPE svg PUBLIC "-//W3C//DTD SVG 1.1//EN" "http://www.w3.org/Graphics/SVG/1.1/DTD/svg11.dtd">
<svg version="1.1" xmlns="http://www.w3.org/2000/svg" xmlns:xlink="http://www.w3.org/1999/xlink" preserveAspectRatio="xMidYMid meet" viewBox="104.86936936936831 398.8378378378391 148.7297297297293 164.81081081080941" width="72" height="80"><defs><path d="M113.91 552.61L242.56 552.61L242.56 488.28L250.6 488.28L250.6 560.65L105.87 560.65L105.87 496.32L113.91 496.32L113.91 496.32L113.91 552.61ZM202.36 544.57L170.19 544.57L170.19 536.53L202.36 536.53L202.36 536.53L202.36 544.57ZM162.15 544.57L129.99 544.57L129.99 536.53L162.15 536.53L162.15 536.53L162.15 544.57ZM226.48 456.12L226.48 536.53L210.4 536.53L210.4 456.12L210.4 456.12L226.48 456.12ZM202.36 528.49L170.19 528.49L170.19 520.45L202.36 520.45L202.36 520.45L202.36 528.49ZM162.15 528.49L129.99 528.49L129.99 520.45L162.15 520.45L162.15 520.45L162.15 528.49ZM202.36 512.41L170.19 512.41L170.19 504.36L202.36 504.36L202.36 504.36L202.36 512.41ZM162.15 512.41L129.99 512.41L129.99 504.36L162.15 504.36L162.15 504.36L162.15 512.41ZM202.36 496.32L170.19 496.32L170.19 488.28L202.36 488.28L202.36 488.28L202.36 496.32ZM162.15 496.32L129.99 496.32L129.99 488.28L162.15 488.28L162.15 488.28L162.15 496.32ZM113.91 496.32L105.87 496.32L105.87 415.92L113.91 415.92L113.91 415.92L113.91 496.32ZM250.6 488.28L242.56 488.28L242.56 423.96L250.6 423.96L250.6 423.96L250.6 488.28ZM202.36 480.24L170.19 480.24L170.19 472.2L202.36 472.2L202.36 472.2L202.36 480.24ZM162.15 480.24L129.99 480.24L129.99 472.2L162.15 472.2L162.15 472.2L162.15 480.24ZM162.15 464.16L129.99 464.16L129.99 456.12L162.15 456.12L162.15 456.12L162.15 464.16ZM202.36 464.16L170.19 464.16L170.19 456.12L202.36 456.12L202.36 456.12L202.36 464.16ZM226.48 448.08L170.19 448.08L170.19 415.92L226.48 415.92L226.48 415.92L226.48 448.08ZM162.15 448.08L129.99 448.08L129.99 440.04L162.15 440.04L162.15 440.04L162.15 448.08ZM162.15 432L129.99 432L129.99 423.96L162.15 423.96L162.15 423.96L162.15 432ZM105.87 407.88L105.87 399.84L250.6 399.84L250.6 423.96L242.56 423.96L242.56 407.88L242.56 407.88L105.87 407.88ZM113.91 415.92L105.87 415.92L105.87 407.88L113.91 407.88L113.91 407.88L113.91 415.92Z" id="b3lxzbhWmK"></path></defs><g><g><use xlink:href="#b3lxzbhWmK" opacity="1" fill="#000000" fill-opacity="1"></use></g></g></svg>