<?xml version="1.0" encoding="UTF-8" standalone="no"?>
<!DOCTYPE svg PUBLIC "-//W3C//DTD SVG 1.1//EN" "http://www.w3.org/Graphics/SVG/1.1/DTD/svg11.dtd">
<svg version="1.1" xmlns="http://www.w3.org/2000/svg" xmlns:xlink="http://www.w3.org/1999/xlink" preserveAspectRatio="xMidYMid meet" viewBox="336.88198198198114 343.87169274537797 76.36486486486467 68.32432432432415" width="72.36" height="64.32"><defs><path d="M370.04 401.16L370.04 393.11L378.08 393.11L378.08 401.16L370.04 401.16ZM378.08 368.99L378.08 360.95L402.21 360.95L402.21 377.03L394.17 377.03L394.17 385.07L386.13 385.07L386.13 393.11L362 393.11L362 385.07L353.96 385.07L353.96 377.03L345.92 377.03L345.92 360.95L370.04 360.95L370.04 368.99L378.08 368.99ZM402.21 352.91L402.21 360.95L386.13 360.95L386.13 352.91L402.21 352.91ZM345.92 360.95L345.92 352.91L362 352.91L362 360.95L345.92 360.95Z" id="b1iQfvxk1P"></path><path d="M370.04 409.2L370.04 401.16L378.08 401.16L378.08 409.2L370.04 409.2ZM386.13 393.11L386.13 401.16L378.08 401.16L378.08 393.11L386.13 393.11L386.13 385.07L394.17 385.07L394.17 393.11L386.13 393.11ZM362 401.16L362 393.11L370.04 393.11L370.04 401.16L362 401.16ZM353.96 393.11L353.96 385.07L362 385.07L362 393.11L353.96 393.11ZM394.17 385.07L394.17 377.03L402.21 377.03L402.21 385.07L394.17 385.07ZM345.92 385.07L345.92 377.03L353.96 377.03L353.96 385.07L345.92 385.07ZM337.88 377.03L337.88 352.91L345.92 352.91L345.92 377.03L337.88 377.03ZM402.21 377.03L402.21 352.91L410.25 352.91L410.25 377.03L402.21 377.03ZM370.04 368.99L370.04 360.95L378.08 360.95L378.08 368.99L370.04 368.99ZM362 360.95L362 352.91L370.04 352.91L370.04 360.95L362 360.95ZM402.21 352.91L386.13 352.91L386.13 360.95L378.08 360.95L378.08 352.91L386.13 352.91L386.13 344.87L402.21 344.87L402.21 352.91ZM345.92 352.91L345.92 344.87L362 344.87L362 352.91L345.92 352.91Z" id="d3vzMpYCa"></path></defs><g><g><use xlink:href="#b1iQfvxk1P" opacity="1" fill="#ff0000" fill-opacity="1"></use></g><g><use xlink:href="#d3vzMpYCa" opacity="1" fill="#000000" fill-opacity="1"></use></g></g></svg>