<?xml version="1.0" encoding="UTF-8" standalone="no"?>
<!DOCTYPE svg PUBLIC "-//W3C//DTD SVG 1.1//EN" "http://www.w3.org/Graphics/SVG/1.1/DTD/svg11.dtd">
<svg version="1.1" xmlns="http://www.w3.org/2000/svg" xmlns:xlink="http://www.w3.org/1999/xlink" preserveAspectRatio="xMidYMid meet" viewBox="309.28153153153147 239.24099099099095 44.202702702702595 43.184684684684726" width="40.2" height="39.18"><defs><path d="M310.28 279.43L310.28 271.39L318.32 271.39L318.32 279.43L310.28 279.43ZM342.44 279.43L342.44 271.39L350.48 271.39L350.48 279.43L342.44 279.43ZM334.4 255.78L334.4 248.28L342.44 248.28L342.44 256.32L334.4 256.32L334.4 263.28L342.44 263.28L342.44 271.32L334.4 271.32L334.4 263.82L326.36 263.82L326.36 271.86L318.32 271.86L318.32 263.82L326.36 263.82L326.36 256.32L318.32 256.32L318.32 248.28L326.36 248.28L326.36 255.78L334.4 255.78ZM310.28 248.28L310.28 240.24L318.32 240.24L318.32 248.28L310.28 248.28ZM342.44 248.28L342.44 240.24L350.48 240.24L350.48 248.28L342.44 248.28Z" id="bSQoyF8gw"></path></defs><g><g><use xlink:href="#bSQoyF8gw" opacity="1" fill="#000000" fill-opacity="1"></use></g></g></svg>