<?xml version="1.0" encoding="UTF-8" standalone="no"?>
<!DOCTYPE svg PUBLIC "-//W3C//DTD SVG 1.1//EN" "http://www.w3.org/Graphics/SVG/1.1/DTD/svg11.dtd">
<svg version="1.1" xmlns="http://www.w3.org/2000/svg" xmlns:xlink="http://www.w3.org/1999/xlink" preserveAspectRatio="xMidYMid meet" viewBox="444.91472506989754 450.3358185771981 68.3243243243241 68.32432432432415" width="64.32" height="64.32"><defs><path d="M462 515.66L462 507.62L470.04 507.62L470.04 515.66L462 515.66ZM470.04 507.62L470.04 499.58L478.08 499.58L478.08 507.62L470.04 507.62ZM478.08 499.58L478.08 491.54L486.12 491.54L486.12 499.58L478.08 499.58ZM462 499.58L462 491.54L470.04 491.54L470.04 499.58L462 499.58ZM494.16 491.54L494.16 483.5L502.2 483.5L502.2 491.54L494.16 491.54ZM453.96 491.54L453.96 483.5L462 483.5L462 491.54L453.96 491.54ZM486.12 491.54L486.12 483.5L494.16 483.5L494.16 491.54L486.12 491.54ZM502.2 483.5L502.2 475.46L510.24 475.46L510.24 483.5L502.2 483.5ZM445.91 483.5L445.91 475.46L453.96 475.46L453.96 483.5L445.91 483.5ZM502.2 475.46L502.2 459.38L510.24 459.38L510.24 475.46L502.2 475.46ZM445.91 475.46L445.91 459.38L453.96 459.38L453.96 475.46L445.91 475.46ZM494.16 459.38L494.16 451.34L502.2 451.34L502.2 459.38L494.16 459.38ZM453.96 459.38L453.96 451.34L494.16 451.34L494.16 459.38L453.96 459.38Z" id="anojSJ9It"></path><path d="M470.04 499.58L470.04 491.54L478.08 491.54L478.08 499.58L470.04 499.58ZM478.08 491.54L478.08 483.5L486.12 483.5L486.12 491.54L478.08 491.54ZM462 491.54L462 483.5L478.08 483.5L478.08 491.54L462 491.54ZM486.12 483.5L486.12 467.42L502.2 467.42L502.2 483.5L486.12 483.5ZM470.04 483.5L470.04 467.42L486.12 467.42L486.12 483.5L470.04 483.5ZM453.96 483.5L453.96 467.42L470.04 467.42L470.04 483.5L453.96 483.5ZM453.96 467.42L453.96 459.38L470.04 459.38L470.04 467.42L453.96 467.42ZM470.04 467.42L470.04 459.38L486.12 459.38L486.12 467.42L470.04 467.42ZM486.12 467.42L486.12 459.38L502.2 459.38L502.2 467.42L486.12 467.42Z" id="a1lbliPFde"></path></defs><g><g><use xlink:href="#anojSJ9It" opacity="1" fill="#000000" fill-opacity="1"></use></g><g><use xlink:href="#a1lbliPFde" opacity="1" fill="#d4d4d4" fill-opacity="1"></use></g></g></svg>